<svg id="wave" style="transform:rotate(180deg); transition: 0.3s" viewBox="0 0 1440 470" version="1.1" xmlns="http://www.w3.org/2000/svg"><defs><linearGradient id="sw-gradient-0" x1="0" x2="0" y1="1" y2="0"><stop stop-color="rgba(37, 99, 235, 1)" offset="0%"></stop><stop stop-color="rgba(147, 197, 253, 1)" offset="100%"></stop></linearGradient></defs><path style="transform:translate(0, 0px); opacity:1" fill="url(#sw-gradient-0)" d="M0,235L60,235C120,235,240,235,360,258.5C480,282,600,329,720,289.8C840,251,960,125,1080,86.2C1200,47,1320,94,1440,141C1560,188,1680,235,1800,227.2C1920,219,2040,157,2160,164.5C2280,172,2400,251,2520,282C2640,313,2760,298,2880,274.2C3000,251,3120,219,3240,172.3C3360,125,3480,63,3600,70.5C3720,78,3840,157,3960,211.5C4080,266,4200,298,4320,289.8C4440,282,4560,235,4680,219.3C4800,204,4920,219,5040,203.7C5160,188,5280,141,5400,109.7C5520,78,5640,63,5760,109.7C5880,157,6000,266,6120,289.8C6240,313,6360,251,6480,227.2C6600,204,6720,219,6840,250.7C6960,282,7080,329,7200,352.5C7320,376,7440,376,7560,360.3C7680,345,7800,313,7920,289.8C8040,266,8160,251,8280,219.3C8400,188,8520,141,8580,117.5L8640,94L8640,470L8580,470C8520,470,8400,470,8280,470C8160,470,8040,470,7920,470C7800,470,7680,470,7560,470C7440,470,7320,470,7200,470C7080,470,6960,470,6840,470C6720,470,6600,470,6480,470C6360,470,6240,470,6120,470C6000,470,5880,470,5760,470C5640,470,5520,470,5400,470C5280,470,5160,470,5040,470C4920,470,4800,470,4680,470C4560,470,4440,470,4320,470C4200,470,4080,470,3960,470C3840,470,3720,470,3600,470C3480,470,3360,470,3240,470C3120,470,3000,470,2880,470C2760,470,2640,470,2520,470C2400,470,2280,470,2160,470C2040,470,1920,470,1800,470C1680,470,1560,470,1440,470C1320,470,1200,470,1080,470C960,470,840,470,720,470C600,470,480,470,360,470C240,470,120,470,60,470L0,470Z"></path></svg>