<svg id="wave" style="transform:rotate(180deg); transition: 0.3s" viewBox="0 0 1440 490" version="1.1" xmlns="http://www.w3.org/2000/svg"><defs><linearGradient id="sw-gradient-0" x1="0" x2="0" y1="1" y2="0"><stop stop-color="rgba(22, 163, 74, 1)" offset="0%"></stop><stop stop-color="rgba(22, 163, 74, 0.505)" offset="100%"></stop></linearGradient></defs><path style="transform:translate(0, 0px); opacity:1" fill="url(#sw-gradient-0)" d="M0,49L26.7,98C53.3,147,107,245,160,294C213.3,343,267,343,320,294C373.3,245,427,147,480,138.8C533.3,131,587,212,640,212.3C693.3,212,747,131,800,138.8C853.3,147,907,245,960,245C1013.3,245,1067,147,1120,130.7C1173.3,114,1227,180,1280,204.2C1333.3,229,1387,212,1440,179.7C1493.3,147,1547,98,1600,65.3C1653.3,33,1707,16,1760,40.8C1813.3,65,1867,131,1920,138.8C1973.3,147,2027,98,2080,122.5C2133.3,147,2187,245,2240,261.3C2293.3,278,2347,212,2400,171.5C2453.3,131,2507,114,2560,114.3C2613.3,114,2667,131,2720,187.8C2773.3,245,2827,343,2880,318.5C2933.3,294,2987,147,3040,138.8C3093.3,131,3147,261,3200,285.8C3253.3,310,3307,229,3360,212.3C3413.3,196,3467,245,3520,294C3573.3,343,3627,392,3680,367.5C3733.3,343,3787,245,3813,196L3840,147L3840,490L3813.3,490C3786.7,490,3733,490,3680,490C3626.7,490,3573,490,3520,490C3466.7,490,3413,490,3360,490C3306.7,490,3253,490,3200,490C3146.7,490,3093,490,3040,490C2986.7,490,2933,490,2880,490C2826.7,490,2773,490,2720,490C2666.7,490,2613,490,2560,490C2506.7,490,2453,490,2400,490C2346.7,490,2293,490,2240,490C2186.7,490,2133,490,2080,490C2026.7,490,1973,490,1920,490C1866.7,490,1813,490,1760,490C1706.7,490,1653,490,1600,490C1546.7,490,1493,490,1440,490C1386.7,490,1333,490,1280,490C1226.7,490,1173,490,1120,490C1066.7,490,1013,490,960,490C906.7,490,853,490,800,490C746.7,490,693,490,640,490C586.7,490,533,490,480,490C426.7,490,373,490,320,490C266.7,490,213,490,160,490C106.7,490,53,490,27,490L0,490Z"></path></svg>